<svg width="1000" height="1000" viewBox="0 0 1000 1000" fill="none" xmlns="http://www.w3.org/2000/svg">
<g clip-path="url(#clip0)">
<rect width="1000" height="1000" rx="500" fill="#373A42"/>
<g filter="url(#filter0_d)">
<path fill-rule="evenodd" clip-rule="evenodd" d="M500 850C693.3 850 850 693.3 850 500C850 306.7 693.3 150 500 150C306.7 150 150 306.7 150 500C150 693.3 306.7 850 500 850ZM500 786.885C658.442 786.885 786.885 658.442 786.885 500C786.885 341.558 658.442 213.115 500 213.115C341.558 213.115 213.115 341.558 213.115 500C213.115 658.442 341.558 786.885 500 786.885Z" fill="white"/>
</g>
</g>
<defs>
<filter id="filter0_d" x="-100" y="-96" width="1200" height="1200" filterUnits="userSpaceOnUse" color-interpolation-filters="sRGB">
<feFlood flood-opacity="0" result="BackgroundImageFix"/>
<feColorMatrix in="SourceAlpha" type="matrix" values="0 0 0 0 0 0 0 0 0 0 0 0 0 0 0 0 0 0 127 0"/>
<feOffset dy="4"/>
<feGaussianBlur stdDeviation="125"/>
<feColorMatrix type="matrix" values="0 0 0 0 1 0 0 0 0 1 0 0 0 0 1 0 0 0 1 0"/>
<feBlend mode="normal" in2="BackgroundImageFix" result="effect1_dropShadow"/>
<feBlend mode="normal" in="SourceGraphic" in2="effect1_dropShadow" result="shape"/>
</filter>
<clipPath id="clip0">
<rect width="1000" height="1000" rx="500" fill="white"/>
</clipPath>
</defs>
</svg>
